<?xml version="1.0" encoding="UTF-8"?>
<svg id="mainpage" xmlns="http://www.w3.org/2000/svg" viewBox="0 0 375 667">
  <polyline id="lineaazul" points="138 -24.5 209 34.5 210.26 468.29 181.85 549.1 182.46 682.5" style="fill: none; stroke: #577b8e; stroke-miterlimit: 10; stroke-width: 20px;"/>
  <line id="linearosa" x1="-21.07" y1="136.18" x2="421.55" y2="135.83" style="fill: none; stroke: #e25790; stroke-miterlimit: 10; stroke-width: 20px;"/>
  <polyline id="lineanegra" points="23.26 -35.41 23.26 35.1 100 117.82 96.19 358.23 46.96 463.37 46.96 555.5 -35.18 555.5" style="fill: none; stroke: #070707; stroke-linejoin: bevel; stroke-width: 20px;"/>
  <polyline id="lineadorada" points="-37 459.5 110.7 535.24 302.24 535.24 350.62 572.12 438.29 572.12" style="fill: none; stroke: #c0a05d; stroke-linejoin: bevel; stroke-width: 20px;"/>
  <g id="nosotrxs">
    <text transform="translate(171.58 423.99)" style="fill: #577b8e; font-family: MetroDF, MetroDF; font-size: 11px; stroke: #efefe8; stroke-miterlimit: 10; stroke-width: .25px;"><tspan x="0" y="0">nos</tspan><tspan x="30.14" y="0" style="letter-spacing: -.04em;">o</tspan><tspan x="39.96" y="0">t</tspan><tspan x="48.99" y="0" style="letter-spacing: .03em;">r</tspan><tspan x="58.61" y="0">xs</tspan></text>
    <g>
      <path d="M223.35,321.48h-57.9v91.62h91.62v-57.9c0-18.62-15.1-33.72-33.72-33.72ZM208.21,398.07c0,1.87-1.02,3.48-2.5,4.22-.55.27-1.14.42-1.78.42h-21.74c-2.37,0-4.28-2.07-4.28-4.64v-53.45c0-2.56,1.92-4.64,4.28-4.64h21.74c2.36,0,4.28,2.08,4.28,4.64v53.45ZM243.49,398.08c0,.8-.18,1.55-.5,2.2-.43.88-1.11,1.58-1.93,2-.54.28-1.14.43-1.78.43h-21.37c-2.32,0-4.2-2.07-4.2-4.63v-53.44c0-2.57,1.88-4.64,4.2-4.64h21.37c2.33,0,4.21,2.07,4.21,4.64v53.44Z" style="fill: #577b8e; stroke-width: 0px;"/>
      <path d="M208.21,344.62v53.45c0,1.87-1.02,3.48-2.5,4.22-.55.27-1.14.42-1.78.42h-21.74c-2.37,0-4.28-2.07-4.28-4.64v-53.45c0-2.56,1.92-4.64,4.28-4.64h21.74c2.36,0,4.28,2.08,4.28,4.64Z" style="fill: #577b8e; stroke-width: 0px;"/>
      <path d="M243.49,344.64v53.44c0,.8-.18,1.55-.5,2.2-.43.88-1.11,1.58-1.93,2-.54.28-1.14.43-1.78.43h-21.37c-2.32,0-4.2-2.07-4.2-4.63v-53.44c0-2.57,1.88-4.64,4.2-4.64h21.37c2.33,0,4.21,2.07,4.21,4.64Z" style="fill: #577b8e; stroke-width: 0px;"/>
      <g id="personas">
        <path d="M239.14,374.42c-1.12.59-2.47.65-3.55,0l-2.69-1.61c-1.02-.61-1.16-3.43-1.23-4.62l-.41-3.59c-.21-3.54,2.19-6.12,5.74-6.12h.84c3.55,0,5.95,2.58,5.74,6.12l-.41,3.59c-.07,1.19-.21,4.01-1.23,4.62l-2.8,1.61" style="fill: #fff; stroke: #577b8e; stroke-miterlimit: 10; stroke-width: 2px;"/>
        <path d="M244,361.08v16.1c-.15-.06-.3-.13-.45-.22l-2.68-1.61c-1.02-.61-1.16-3.43-1.23-4.62l-.41-3.59c-.2-3.21,1.77-5.63,4.78-6.06Z" style="fill: #fff; stroke: #577b8e; stroke-miterlimit: 10; stroke-width: 2px;"/>
        <path d="M193.89,376.03c-1.12.59-2.47.65-3.55,0l-2.69-1.61c-1.02-.61-1.16-3.43-1.23-4.62l-.41-3.59c-.21-3.54,2.19-6.12,5.74-6.12h.84c3.55,0,5.95,2.58,5.74,6.12l-.41,3.59c-.07,1.19-.21,4.01-1.23,4.62l-2.8,1.61" style="fill: #fff; stroke: #577b8e; stroke-miterlimit: 10; stroke-width: 2px;"/>
        <path d="M194.33,378.27l-.31.16c-1.33.7-2.92.7-4.25-.01h0c-2.46-1.32-3.72-.57-5.52,2.06-.75,1.09-1.14,2.38-1.17,3.71l-.23,10.67c-.04,4.3,1.96,4.68,4.51,4.68h9.53c2.6,0,4.52.09,4.51-4.79l-.38-10.6c-.05-1.44-.56-2.83-1.43-3.97-1.83-2.39-2.89-3.16-5.26-1.9Z" style="fill: #fff; stroke: #577b8e; stroke-miterlimit: 10; stroke-width: 2px;"/>
        <path d="M208.21,364.86v14.54l-1.41.82c-1.12.6-2.47.65-3.55,0l-2.68-1.61c-1.02-.61-1.16-3.43-1.23-4.62l-.41-3.59c-.21-3.54,2.2-6.12,5.74-6.12h.85c1.01,0,1.92.21,2.71.59Z" style="fill: #fff; stroke: #577b8e; stroke-miterlimit: 10; stroke-width: 2px;"/>
        <path d="M208.21,382.03v16.4c0,1.73-1.02,3.21-2.5,3.89-.54.25-1.14.39-1.78.39h-7.19c-.63-.67-1-1.8-.98-3.67l.22-10.67c.03-1.32.43-2.61,1.17-3.7,1.22-1.78,2.19-2.7,3.45-2.7.6,0,1.27.21,2.07.64,1.33.71,2.92.72,4.25.01l.31-.16c.35-.19.67-.33.98-.43Z" style="fill: #fff; stroke: #577b8e; stroke-miterlimit: 10; stroke-width: 2px;"/>
        <path d="M198.42,389.99c-1.12.59-2.47.65-3.55,0l-2.69-1.61c-1.02-.61-1.16-3.43-1.23-4.62l-.41-3.59c-.21-3.54,2.19-6.12,5.74-6.12h.84c3.55,0,5.95,2.58,5.74,6.12l-.41,3.59c-.07,1.19-.21,4.01-1.23,4.62l-2.8,1.61" style="fill: #fff; stroke: #577b8e; stroke-miterlimit: 10; stroke-width: 2px;"/>
        <path d="M205.71,402.32c-.54.25-1.14.39-1.78.39h-16.42l.1-4.58c.03-1.32.43-2.61,1.17-3.7,1.22-1.78,2.19-2.7,3.45-2.7.6,0,1.27.21,2.07.64,1.33.71,2.92.72,4.25.01l.31-.16c2.38-1.26,3.43-.49,5.26,1.9.87,1.14,1.38,2.53,1.43,3.97l.15,4.23Z" style="fill: #fff; stroke: #577b8e; stroke-miterlimit: 10; stroke-width: 2px;"/>
        <path d="M183.45,370.86l-.41,3.59c-.07,1.19-.2,4.01-1.23,4.62l-2.8,1.61c-.35.19-.73.32-1.11.4v-16.34c3.44.09,5.75,2.64,5.54,6.12Z" style="fill: #fff; stroke: #577b8e; stroke-miterlimit: 10; stroke-width: 2px;"/>
        <path d="M186.53,399.39c0,1.56-.19,2.61-.54,3.32h-3.79c-2.37,0-4.28-1.92-4.28-4.28v-14.91c.42-.08.84-.23,1.23-.44l.31-.16c2.38-1.26,3.43-.49,5.26,1.9.87,1.14,1.38,2.53,1.43,3.97l.38,10.6Z" style="fill: #fff; stroke: #577b8e; stroke-miterlimit: 10; stroke-width: 2px;"/>
        <g>
          <path d="M224.79,374.34c-1.12.59-2.47.65-3.55,0l-2.69-1.61c-1.02-.61-1.16-3.43-1.23-4.62l-.41-3.59c-.21-3.54,2.19-6.12,5.74-6.12h.84c3.55,0,5.95,2.58,5.74,6.12l-.41,3.59c-.07,1.19-.21,4.01-1.23,4.62l-2.8,1.61" style="fill: #fff; stroke: #577b8e; stroke-miterlimit: 10; stroke-width: 2px;"/>
          <path d="M225.22,376.58l-.31.16c-1.33.7-2.92.7-4.25-.01h0c-2.46-1.32-3.72-.57-5.52,2.06-.75,1.09-1.14,2.38-1.17,3.71l-.23,10.67c-.04,4.3,1.96,4.68,4.51,4.68h9.53c2.6,0,4.52.09,4.51-4.79l-.38-10.6c-.05-1.44-.56-2.83-1.43-3.97-1.83-2.39-2.89-3.16-5.26-1.9Z" style="fill: #fff; stroke: #577b8e; stroke-miterlimit: 10; stroke-width: 2px;"/>
        </g>
        <path d="M188.2,384.99c-1.12.59-2.47.65-3.55,0l-2.69-1.61c-1.02-.61-1.16-3.43-1.23-4.62l-.41-3.59c-.21-3.54,2.19-6.12,5.74-6.12h.84c3.55,0,5.95,2.58,5.74,6.12l-.41,3.59c-.07,1.19-.21,4.01-1.23,4.62l-2.8,1.61" style="fill: #fff; stroke: #577b8e; stroke-miterlimit: 10; stroke-width: 2px;"/>
        <path d="M195.68,402.71h-13.49c-2.37,0-4.28-1.92-4.28-4.28v-7.78c.17-.43.39-.83.66-1.22,1.21-1.78,2.18-2.7,3.45-2.7.6,0,1.27.21,2.07.64,1.33.72,2.92.72,4.25.01l.31-.16c2.38-1.26,3.43-.49,5.26,1.9.88,1.14,1.38,2.53,1.43,3.97l.34,9.62Z" style="fill: #fff; stroke: #577b8e; stroke-miterlimit: 10; stroke-width: 2px;"/>
        <path d="M234.09,382.08c-1.12.59-2.47.65-3.55,0l-2.69-1.61c-1.02-.61-1.16-3.43-1.23-4.62l-.41-3.59c-.21-3.54,2.19-6.12,5.74-6.12h.84c3.55,0,5.95,2.58,5.74,6.12l-.41,3.59c-.07,1.19-.21,4.01-1.23,4.62l-2.8,1.61" style="fill: #fff; stroke: #577b8e; stroke-miterlimit: 10; stroke-width: 2px;"/>
        <path d="M241.6,400.79c0,.57-.02,1.08-.07,1.52-.55.26-1.16.4-1.81.4h-16.53c-.1-.51-.14-1.11-.14-1.81l.22-10.67c.03-1.32.43-2.61,1.17-3.7,1.22-1.78,2.19-2.7,3.45-2.7.6,0,1.27.21,2.07.64,1.33.71,2.92.72,4.25.01l.31-.16c2.38-1.26,3.43-.49,5.26,1.9.87,1.14,1.38,2.53,1.43,3.97l.38,10.6Z" style="fill: #fff; stroke: #577b8e; stroke-miterlimit: 10; stroke-width: 2px;"/>
        <path d="M220.86,374.11l-.41,3.59c-.07,1.19-.2,4.01-1.23,4.62l-2.8,1.61c-.85.45-1.82.59-2.72.35v-16.28c.19-.01.37-.02.57-.02h.85c3.54,0,5.95,2.58,5.74,6.12Z" style="fill: #fff; stroke: #577b8e; stroke-miterlimit: 10; stroke-width: 2px;"/>
        <path d="M223.93,402.65v.06h-5.95c-2.36,0-4.28-1.92-4.28-4.28v-11.63c.96.16,1.96,0,2.84-.47l.31-.16c2.38-1.26,3.43-.49,5.26,1.9.87,1.14,1.38,2.53,1.43,3.97l.38,10.6Z" style="fill: #fff; stroke: #577b8e; stroke-miterlimit: 10; stroke-width: 2px;"/>
        <path d="M244,371.7v13.87l-2,1.16c-1.12.6-2.47.65-3.56,0l-2.68-1.61c-1.02-.61-1.16-3.43-1.23-4.62l-.41-3.59c-.21-3.54,2.2-6.12,5.74-6.12h.85c1.27,0,2.4.33,3.31.92Z" style="fill: #fff; stroke: #577b8e; stroke-miterlimit: 10; stroke-width: 2px;"/>
        <path d="M244,388.39v10.04c0,2.36-1.92,4.28-4.28,4.28h-8.7l.16-7.83c.03-1.32.43-2.61,1.17-3.7,1.22-1.78,2.19-2.7,3.45-2.7.6,0,1.27.21,2.07.64,1.33.71,2.92.72,4.25.01l.31-.16c.6-.32,1.11-.51,1.57-.57Z" style="fill: #fff; stroke: #577b8e; stroke-miterlimit: 10; stroke-width: 2px;"/>
        <path d="M228.97,387.66c-1.12.59-2.47.65-3.55,0l-2.69-1.61c-1.02-.61-1.16-3.43-1.23-4.62l-.41-3.59c-.21-3.54,2.19-6.12,5.74-6.12h.84c3.55,0,5.95,2.58,5.74,6.12l-.41,3.59c-.07,1.19-.21,4.01-1.23,4.62l-2.8,1.61" style="fill: #fff; stroke: #577b8e; stroke-miterlimit: 10; stroke-width: 2px;"/>
        <path d="M236.36,402.71h-18.34l.14-6.9c.03-1.32.43-2.61,1.17-3.7,1.22-1.78,2.19-2.7,3.45-2.7.6,0,1.27.21,2.07.64,1.33.71,2.92.72,4.25.01l.31-.16c2.38-1.26,3.43-.49,5.26,1.9.87,1.14,1.38,2.53,1.43,3.97l.25,6.94Z" style="fill: #fff; stroke: #577b8e; stroke-miterlimit: 10; stroke-width: 2px;"/>
      </g>
      <path d="M208.21,344.62v53.45c0,1.87-1.02,3.48-2.5,4.22-.55.27-1.14.42-1.78.42h-21.74c-2.37,0-4.28-2.07-4.28-4.64v-53.45c0-2.56,1.92-4.64,4.28-4.64h21.74c2.36,0,4.28,2.08,4.28,4.64Z" style="fill: none; stroke: #fff; stroke-miterlimit: 10; stroke-width: 2px;"/>
      <path d="M243.49,344.64v53.44c0,.8-.18,1.55-.5,2.2-.43.88-1.11,1.58-1.93,2-.54.28-1.14.43-1.78.43h-21.37c-2.32,0-4.2-2.07-4.2-4.63v-53.44c0-2.57,1.88-4.64,4.2-4.64h21.37c2.33,0,4.21,2.07,4.21,4.64Z" style="fill: none; stroke: #fff; stroke-miterlimit: 10; stroke-width: 2px;"/>
    </g>
  </g>
  <g id="seguridad">
    <g>
      <path d="M251.5,572.77v-92h58.28c18.6,0,33.72,15.13,33.72,33.72v58.28h-92ZM285.39,545.71l3.69,2.21,14.46,7.35,1.14-6.39,2.5-4.23,1.29,1.02,3.36-2.56,1.12-.66.32.41,4.44-.08.82,1.06.04-3.25-.79-1.07,2.35-1.68,3.47,4.53,4.44-.08.83,1.11.04-3.34-2.94-4.1.44-.04,1.79-.13,3.96,5.96,4.44.23.75,1.13.26-3.29-9.73-15.7v-.5h-.31s-.66-1.07-.66-1.07v1.07h-4.6s0,.99,0,.99l-1.96.22.24-.86.95-1.58.41-.59h2.49l-.37-2.89-1.88-.54-1.42-1.23.02-.04.35-1.75-4.8-1.34v.84l-2.16-.37-.24-.62,1.04-.56-1.37-1.58-.31-.12,1.2-1.24h-1.91l.6-1.03-2.5-1.78-.89-1.23h-.26l-.36-.94h.28s3.78,2.95,3.78,2.95l.31-.26c.52-.43.95-1.17,1.29-2.19l.2-.59,4.89-.09-3.18-1.1-11.1-3.91-48.22-1.57v33.12h-.13v3.35l4.2-.36c1.67.71,3.42,1.43,5.22,2.15l-9.41.85v3.81l13.16-1.07h.05c.82,2.03,2.79,3.37,4.98,3.37,1.12,0,2.18-.34,3.09-.98,1.65.46,3.38.93,5.19,1.4l1.61,1.43Z" style="fill: #c0a05d; stroke-width: 0px;"/>
      <path d="M309.78,481.27c18.32,0,33.22,14.9,33.22,33.22v57.78h-91v-91h57.78M256.95,531.33h-.13v4.34l1.09-.09,3.53-.31c1.04.44,2.11.88,3.19,1.33l-1.15.1-1.62.15-.21.02-3.92.35-.91.08v4.81l1.08-.09,12.3-1c.96,2.03,3.02,3.35,5.3,3.35,1.14,0,2.23-.32,3.18-.94,1.55.43,3.19.87,4.86,1.31l1.52,1.35.07.06.08.05,3.61,2.15.03.02.03.02,13.83,7.03,1.2.61.24-1.33.99-5.56v-.08s.12-.18.12-.18l1.12-1.89.94-1.59.54.43.61.48.62-.47,3-2.29.74-.44.2.26h.5s3.94-.08,3.94-.08l1.55,2.01.04-2.87.02-1.65v-.34s-.19-.27-.19-.27l-.39-.53,1.54-1.1,3.03,3.94.31.4h.5s3.93-.08,3.93-.08l1.56,2.08.03-2.94.02-1.69v-.33s-.19-.27-.19-.27l-2.33-3.24.49-.03.56-.04,3.66,5.51.28.42.5.03,3.93.2,1.42,2.15.23-2.91.13-1.69.03-.33-.17-.28-7.2-11.61-2.35-3.79-.02-.04v-.85h-.53s-1.44-2.34-1.44-2.34v2.34h-3.59s-1-.02-1-.02v1s0,.06,0,.06l-.78.09.02-.08.9-1.49.26-.38h2.79l-.14-1.13-.26-2-.08-.65-.63-.18-1.45-.42-1.11-.96.21-1.05.18-.91-.89-.25-3.72-1.04-1.27-.35v.91l-1.2-.21h.02s1.1-.61,1.1-.61l-.82-.94-.86-.99,1.59-1.64h-2.22l.39-.68-.46-.33.48-.4c.6-.5,1.07-1.29,1.44-2.42l.08-.25.99-.02h.16s.57-.01.57-.01l5.62-.11-5.31-1.83-.49-.17-.16-.06-.75-.26-2.93-1.03-7.21-2.54-.15-.05h-.15s-47.63-1.56-47.63-1.56l-1.03-.03v33.19M309.78,480.27h-58.78v93h93v-58.78c0-18.9-15.32-34.22-34.22-34.22h0ZM257.95,531.85v-32.68l47.63,1.55,7.21,2.54,2.93,1.03.75.26.14.05.52.18h-.57s-.16.01-.16.01l-3.75.06h-.68s-1.49.03-1.49.03l-1.29.02h-.7s.56,1.47.56,1.47l-2.18.46h2.7l.79,1.09,2.19,1.56-.81,1.39h1.6l-.91.94.91.34.88,1.01-.88.47.51,1.29,3.02.52v-.78l3.72,1.04-.25,1.23-.67,1.36.91-.69,1.4,1.21,1.67.48.26,2h-2.18l-.58.83-.99,1.64-.46,1.64,3.15-.35v-.95s4.57.01,4.57.01v.43h.03v-.24l.14.22,2.35,3.79,7.2,11.61-.13,1.69-.09-.14-4.44-.23-3.98-6-1.15.08-.94.07-1.32.11,3.36,4.68-.02,1.69-.1-.13-4.45.08-3.82-4.97.04.38-2.99,2.14.99,1.34-.02,1.65-.1-.13-4.44.08-.44-.55-1.55.92-3.05,2.32-1.44-1.14-1.52,2.58-1.12,1.89-.2.34-.02.11-.03.15-.99,5.55-13.83-7.03-3.61-2.15-1.7-1.51c-1.94-.5-3.79-1-5.54-1.49-.83.64-1.86,1.03-2.99,1.03-2.13,0-3.93-1.36-4.6-3.26-.13-.04-.25-.08-.37-.12l-12.71,1.03v-2.81l3.92-.35.21-.02,1.62-.15,5.3-.48c-2.98-1.18-5.45-2.2-7.27-2.97l-3.78.33v-2.34l3.54-.39h-3.41ZM313.24,507.73l-2.44-1.9,3.57-.06c-.35,1.06-.75,1.65-1.13,1.97h0Z" style="fill: #c0a05d; stroke-width: 0px;"/>
    </g>
    <g>
      <path d="M312.23,506.3l1.42-.03c-.16.35-.31.6-.45.78l-.97-.76Z" style="fill: #c0a05d; stroke-width: 0px;"/>
      <path d="M314.38,505.76l-3.57.06,2.44,1.9c.38-.32.78-.91,1.13-1.97h0Z" style="fill: #c0a05d; stroke-width: 0px;"/>
    </g>
    <g>
      <path d="M289.56,547.04l-3.58-2.13-1.71-1.54-.12-.03c-1.93-.5-3.78-1-5.52-1.49l-.24-.07-.2.16c-.77.6-1.7.92-2.68.92-1.85,0-3.51-1.18-4.13-2.93l-.08-.24-.7-.21-12.27,1v-1.81l12.69-1.14-1.96-.77c-2.51-.99-4.96-1.99-7.26-2.96l-.12-.05-3.36.29v-1.35l3.1-.34-.05-1h-2.92v-31.66l47.03,1.54,8.85,3.12-1.71.03h-.68s-4.2.08-4.2.08l.61,1.58-6.24,1.33h7.18l.69.95,1.89,1.34-1.02,1.75h1.29l-.62.64,1.51.56.38.44-.72.39.77,1.97,3.88.66v-.71l2.64.74-.14.71-1.56,3.18,2.26-1.71,1.17,1.02,1.46.42.14,1.11h-1.87l-.73,1.04-1.04,1.72-.69,2.42,4.33-.48v-.89s3.57.01,3.57.01v.43h.4l9.31,15.02-.07.91-3.8-.2-4-6.03-2.38.17-2.21.18,3.78,5.26v.91s-3.82.07-3.82.07l-4.77-6.22.23,1.89-3.17,2.26,1.19,1.62v.87s-3.82.07-3.82.07l-.55-.7-1.92,1.14-2.78,2.12-1.58-1.25-3.18,5.38-.93,5.24-13.23-6.72Z" style="fill: #c0a05d; stroke-width: 0px;"/>
      <path d="M258.95,500.2l46.44,1.52,6.14,2.16-1.08.02-1.3.02h-.7s-1.42.05-1.42.05l.51,1.33.14.37-1.03.22-9.26,1.98h11.66l.49.68.1.13.13.1,1.45,1.03-.35.6-.88,1.5h.98l-.33.35,1.44.53.47.17-.46.25.32.82.51,1.29.21.53.56.1,3.02.52,1.17.2v-.65l1.56.43-.04.19-.61,1.24-1.84,3.76,3.34-2.52.27-.2.78.68.17.14.21.06,1.03.3.03.22h-1.56l-.3.43-.58.83-.02.03-.02.03-.99,1.64-.07.12-.04.13-.46,1.64-.4,1.43,1.48-.16,3.15-.35.89-.1v-.84s2.59,0,2.59,0v.43h.6l2.05,3.31,7.03,11.34-.02.26-3.07-.16-3.7-5.58-.32-.49-.58.04-1.15.08-.95.07-1.32.11-1.76.14,1.03,1.44,3.17,4.41v.26s-3.07.05-3.07.05l-3.51-4.57-2.22-2.89.4,3.4-2.51,1.79-.82.59.6.82.79,1.07v.22s-3.08.06-3.08.06l-.13-.16-.54-.69-.75.45-1.55.92-.05.03-.05.04-2.43,1.85-.83-.66-.9-.71-.58.99-1.52,2.58-1.12,1.89-.2.34-.09.16-.03.18-.02.1-.03.15-.76,4.23-12.6-6.4-3.5-2.08-1.63-1.45-.18-.16-.23-.06c-1.91-.5-3.77-1-5.52-1.49l-.49-.14-.4.31c-.68.53-1.51.82-2.38.82-1.64,0-3.11-1.04-3.65-2.59l-.17-.48-.49-.14-.19-.06-.17-.05-.18-.06-.19.02-11.63.95v-.81l3.01-.27.21-.02,1.62-.15,5.3-.48,4.2-.38-3.93-1.55c-2.49-.98-4.93-1.98-7.25-2.96l-.23-.1-.25.02-2.69.23v-.35l2.65-.29-.11-1.99h-2.41v-30.65M257.95,499.17v32.68h3.41l-3.54.39v2.34l3.78-.33c1.82.77,4.29,1.79,7.27,2.97l-5.3.48-1.62.15-.21.02-3.92.35v2.81l12.71-1.03c.12.04.25.08.37.12.67,1.9,2.47,3.26,4.6,3.26,1.13,0,2.17-.38,2.99-1.03,1.75.49,3.6.99,5.54,1.49l1.7,1.51,3.61,2.15,13.83,7.03.99-5.55.03-.15.02-.11.2-.34,1.12-1.89,1.52-2.58,1.44,1.14,3.05-2.32,1.55-.92.44.55,4.44-.08.1.13.02-1.65-.99-1.34,2.99-2.14-.04-.38,3.82,4.97,4.45-.08.1.13.02-1.69-3.36-4.68,1.32-.11.94-.07,1.15-.08,3.98,6,4.44.23.09.14.13-1.69-7.2-11.61-2.35-3.79-.14-.22v.24h-.03v-.43h-4.56s0,.93,0,.93l-3.15.35.46-1.64.99-1.64.58-.83h2.18l-.26-2-1.67-.48-1.4-1.21-.91.69.67-1.36.25-1.23-3.72-1.04v.78l-3.02-.52-.51-1.29.88-.47-.88-1.01-.91-.34.91-.94h-1.6l.81-1.39-2.19-1.56-.79-1.09h-2.7l2.18-.46-.56-1.46h.7s1.29-.03,1.29-.03l1.49-.03h.68s3.75-.07,3.75-.07h.16s.57-.01.57-.01l-.52-.18-.14-.05-.75-.26-2.93-1.03-7.21-2.54-47.63-1.55h0Z" style="fill: #c0a05d; stroke-width: 0px;"/>
    </g>
    <path d="M337.18,553.99c-10.5-.25-22.04-2.36-32.99-5.17-.88-.22-1.75-.45-2.62-.69-1.4-.37-2.79-.76-4.16-1.15-5.43-1.55-10.61-3.23-15.33-4.86-.29-.1-.57-.2-.86-.29-.57-.2-1.14-.4-1.7-.6-1.02-.36-2.02-.73-2.99-1.08-.48-.17-.96-.35-1.42-.52-.51-.19-1-.38-1.49-.56-1.03-.39-2.02-.77-2.97-1.13-.62-.24-1.22-.48-1.8-.7" style="fill: none; stroke: #efefe8; stroke-miterlimit: 10; stroke-width: 2px;"/>
    <path d="M261.59,534.25c-2.26-.96-3.52-1.53-3.52-1.53" style="fill: none; stroke: #efefe8; stroke-miterlimit: 10; stroke-width: 2px;"/>
    <path d="M258.07,530.09s46.3,23.76,79.04,25.76" style="fill: none; stroke: #efefe8; stroke-miterlimit: 10;"/>
    <path d="M337.18,552.66c-11.86-.87-22.91-2.44-32.77-4.29-1.74-.33-3.45-.66-5.12-1-.63-.13-1.25-.26-1.87-.39-4.83-1.02-9.31-2.09-13.39-3.14" style="fill: none; stroke: #efefe8; stroke-miterlimit: 10;"/>
    <path d="M278.49,542.34c-2.78-.77-5.32-1.53-7.59-2.24" style="fill: none; stroke: #efefe8; stroke-miterlimit: 10;"/>
    <path d="M270.53,539.99c-.99-.31-1.92-.61-2.8-.89-1.56-.51-2.95-.98-4.17-1.4-3.78-1.31-5.83-2.15-5.83-2.15" style="fill: none; stroke: #efefe8; stroke-miterlimit: 10;"/>
    <path d="M258.07,537.1s72.72,15.29,79.11,13.75" style="fill: none; stroke: #efefe8; stroke-miterlimit: 10;"/>
    <g>
      <polygon points="306.62 542.93 288.65 536.34 290.2 526.04 290.78 517.17 291.88 506.71 295.68 501.99 306.62 503.24 307.73 504.39 308.36 506.02 302.12 507.36 309.3 507.36 309.99 508.31 311.87 509.65 310.86 511.4 312.15 511.4 311.53 512.04 313.04 512.6 313.42 513.04 312.7 513.43 313.47 515.4 317.36 516.06 317.36 515.35 319.99 516.09 319.85 516.8 318.29 519.99 320.55 518.28 321.73 519.3 323.18 519.71 323.33 520.82 321.46 520.82 320.73 521.86 319.68 523.58 318.45 527.96 315.94 532.43 319.2 533.94 319.56 537.04 316.68 539.09 312.82 541.37 311.28 542.29 308.49 544.41 306.62 542.93" style="fill: #efefe8; stroke-width: 0px;"/>
      <path d="M295.9,502.52l10.49,1.2.91.95.24.63.14.37-1.03.22-9.26,1.98h11.66l.49.68.1.13.13.1,1.45,1.03-.35.6-.88,1.5h.98l-.33.35,1.44.53.47.17-.46.25.32.82.51,1.29.21.53.56.1,3.02.52,1.17.2v-.65l1.56.43-.04.19-.61,1.24-1.84,3.76,3.34-2.52.27-.2.78.68.17.14.21.06,1.03.3.03.22h-1.56l-.3.43-.58.83-.02.03-.02.03-.99,1.64-.07.12-.04.13-.47,1.64-.54,1.9-.2.71-.27.49-.04.06-.32.57-1.59,2.84-.53.94.98.45,1.29.6,1.22.56.21,1.81.08.72-2.52,1.8-.08.06-.69.41-.03.02-.03.02-3.1,1.84-1.55.92-.05.03-.05.04-2.43,1.85-.83-.65-.67-.54-.13-.1-.15-.06-8-2.93-2.79-1.03-.07-.02-3.19-1.17-2.66-.98-.8-.29v-.06s.06-.32.06-.32l.1-.7.43-2.88.03-.19v-.02s.02-.11.02-.11l.25-1.65.18-1.16.42-2.81v-.04s0-.04,0-.04l.29-4.39.29-4.39,1.09-10.34.88-1.08,2.66-3.3M295.47,501.47l-3.01,3.73-1.06,1.31-1.12,10.64-.29,4.43-.29,4.39-.42,2.81-.17,1.16-.25,1.65v.09s-.02.06-.02.06l-.03.17-.43,2.88-.1.7-.05.32-.13.87,1.57.57,2.66.98,3.19,1.17.09.03,2.78,1.02,8,2.94.67.54,1.44,1.14,3.05-2.32,1.55-.92,3.1-1.84.04-.02.74-.44.12-.09,2.99-2.14-.04-.38-.1-.93-.28-2.37-1.73-.8-1.29-.6,1.59-2.84.32-.57.03-.04.34-.61.23-.83.54-1.9.46-1.64.99-1.64.58-.83h2.18l-.26-2-1.67-.48-1.4-1.21-.91.69.67-1.36.25-1.23-3.72-1.04v.78l-3.02-.52-.51-1.29.88-.47-.88-1.01-.91-.34.91-.94h-1.6l.81-1.39-2.19-1.56-.79-1.09h-2.7l2.18-.46-.56-1.46-.31-.81-1.3-1.35-11.39-1.3h0Z" style="fill: #c0a05d; stroke-width: 0px;"/>
    </g>
    <g>
      <path d="M280.37,538.49c0,.09,0,.18,0,.27,0,.15-.02.29-.04.42-.04.32-.12.63-.22.92-.02.06-.04.11-.06.17-.13.33-.29.65-.49.94-.05.08-.11.16-.17.23-.25.33-.55.63-.88.89-.83.64-1.86,1.03-2.99,1.03-2.13,0-3.93-1.36-4.6-3.26-.02-.04-.03-.09-.04-.14-.03-.08-.05-.16-.07-.25-.1-.39-.15-.8-.15-1.22,0-.19.01-.38.03-.57.04-.31.1-.6.19-.89.08-.26.19-.52.31-.76.74-1.44,2.18-2.47,3.87-2.63.15-.01.31-.02.46-.02,1.87,0,3.5,1.06,4.31,2.61.26.49.44,1.02.51,1.59.03.22.05.44.05.67Z" style="fill: #fff; stroke: #c0a05d; stroke-miterlimit: 10;"/>
      <circle cx="275.5" cy="538.5" r="1.95" style="fill: #000; stroke: #c0a05d; stroke-miterlimit: 10;"/>
    </g>
    <path d="M317.12,504.79h-.57s-.16.01-.16.01l-3.75.06h-.68s-1.49.03-1.49.03l-1.29.02h-.7s-.01.01-.01.01l-16,.26-2.49.04s.1,1.31-1.13,2.08l.04-.17c.19-.78-.41-1.53-1.25-1.57l-7.94-.35-10.16-.44c-.09,0-.17,0-.25.01-.54.07-.99.45-1.12.97l-5.76,23.01c-.2.78.41,1.54,1.25,1.58l5.43.23s-.01.01-.01.02c-.09.15-.18.29-.26.41-.02.03-.04.06-.06.09l-6.92.73h-3.88v-32.68l47.63,1.55,7.21,2.54,2.93,1.03.75.26.14.05.52.18Z" style="fill: #efefe8; stroke: #c0a05d; stroke-linejoin: round;"/>
    <polygon points="307.22 543.61 307.05 543.9 305.53 546.48 304.41 548.37 304.21 548.71 304.19 548.81 304.17 548.96 303.17 554.52 289.34 547.49 285.73 545.34 284.03 543.83 282.09 542.11 281.91 541.95 280.03 540.28 279.62 539.92 279.29 539.62 279.5 539.26 279.99 538.41 280.32 537.83 281.31 536.1 281.52 535.75 281.54 535.7 282.27 534.44 283.42 532.45 286.18 533.75 288.38 534.78 289.61 535.35 293.65 537.25 293.75 537.29 295.21 537.98 297.18 538.9 304.06 542.13 304.96 542.55 307.22 543.61" style="fill: #fff; stroke: #c0a05d; stroke-linejoin: round;"/>
    <polygon points="313.71 525.3 315.04 528 314.1 531.48 311.52 534.81 308.81 540.15 308.71 540.3 284.9 529.85 296.11 511.62 297.24 511.87 297.92 510.32 302.98 512.74 303.88 513.17 306.01 514.47 313.04 517.26 313.71 518.1 315.22 518.1 317.11 519.14 313.71 524.67 313.71 525.3" style="fill: #fff; stroke: #c0a05d; stroke-miterlimit: 10;"/>
    <path d="M288.57,507.15l-.04.17-5.5,22.25-10.82,1.1,2.69-9.94,4.2-15.5,8.19.34c.87.04,1.49.79,1.29,1.57Z" style="fill: #fff; stroke: #c0a05d; stroke-miterlimit: 10;"/>
    <path d="M278.67,505.24l-3.88,15.5-2.51,10.03-3.73-.17-5.17-.23c-.8-.04-1.38-.8-1.19-1.58l5.49-23.01c.14-.6.69-1.01,1.31-.98l9.68.44Z" style="fill: #fff; stroke: #c0a05d; stroke-miterlimit: 10;"/>
    <path d="M286.43,508.44l-2.58,10.76c-.12.5-.56.85-1.07.85h-4.21c-.71,0-1.24-.67-1.07-1.36l2.58-10.76c.12-.5.56-.85,1.07-.85h4.22c.71,0,1.24.67,1.07,1.36Z" style="fill: #efefe8; stroke: #c0a05d; stroke-miterlimit: 10;"/>
    <path d="M276.01,508.44l-2.58,10.76c-.12.5-.56.85-1.07.85h-4.21c-.71,0-1.24-.67-1.07-1.36l2.58-10.76c.12-.5.56-.85,1.07-.85h4.22c.71,0,1.24.67,1.07,1.36Z" style="fill: #efefe8; stroke: #c0a05d; stroke-miterlimit: 10;"/>
    <g>
      <path d="M309.39,505.35l5.69-.1-.22.67c-.34,1.03-.77,1.76-1.29,2.19l-.31.26-3.87-3.02Z" style="fill: #fff; stroke-width: 0px;"/>
      <path d="M314.38,505.76c-.35,1.06-.75,1.65-1.13,1.97l-2.44-1.9,3.57-.06M315.77,504.73l-1.41.02-3.57.06-2.82.05,2.22,1.74,2.44,1.9.64.5.62-.52c.6-.5,1.07-1.29,1.44-2.42l.44-1.34h0Z" style="fill: #c0a05d; stroke-width: 0px;"/>
    </g>
    <polygon points="329.92 528.36 328.84 528.45 328.48 528.48 328.44 528.49 327.33 528.58 324.55 528.82 324.2 528.85 324.19 528.85 320.47 529.17 318.98 529.3 318.93 529.31 318.23 529.37 314.58 529.68 314.52 529.69 310.21 530.06 308.73 530.19 308.67 530.19 304.27 530.57 300.46 530.9 298.79 531.04 298.74 531.05 294.55 531.41 290.73 531.74 289.46 531.85 289.03 531.88 288.98 531.89 288.81 531.9 284.7 532.26 280.56 532.62 278.87 532.76 278.81 532.77 274.51 533.14 265.9 533.88 261.59 534.25 257.82 534.58 257.82 532.24 261.36 531.85 261.57 531.82 263.71 531.59 268.26 531.09 268.81 531.03 270.31 530.86 271.52 530.73 271.53 530.73 272.2 530.66 272.32 530.64 272.32 530.64 273.26 530.54 274.38 530.41 277.82 530.04 277.85 530.03 278.1 530.01 283.05 529.46 283.2 529.44 284.38 529.31 285.29 529.21 287.75 528.94 287.79 528.94 288.17 528.9 289.28 528.77 293.02 528.36 297.48 527.87 297.51 527.87 297.98 527.81 302.83 527.28 307.38 526.78 307.41 526.78 307.77 526.74 313.14 526.15 314.08 526.04 317.68 525.65 317.71 525.64 317.92 525.62 319.68 525.43 322.83 525.08 323.28 525.03 327.33 524.59 327.4 524.58 327.43 524.58 327.57 524.56 329.92 528.36" style="fill: #fff; stroke: #c0a05d; stroke-miterlimit: 10;"/>
    <polygon points="332.51 535.01 330.94 535.12 328.47 535.3 327.33 535.38 326.39 535.44 325.06 535.55 323.76 535.66 323.7 535.66 319.94 535.97 319.37 536.01 314.86 536.38 313.57 536.49 313.51 536.49 310.55 536.73 309.19 536.84 305.47 537.14 303.65 537.29 303.6 537.3 302.14 537.42 300.03 537.59 296.28 537.89 295.21 537.98 294.4 538.04 294.35 538.05 292.33 538.22 290.76 538.34 286.28 538.71 284.41 538.86 284.35 538.86 280.76 539.15 280.32 539.19 279.5 539.26 278.28 539.36 277.2 539.44 275.13 539.61 273.97 539.71 271.66 539.89 270.86 539.96 270.53 539.99 257.82 541.02 257.82 538.21 261.74 537.86 261.94 537.84 263.56 537.7 268.86 537.22 268.93 537.21 270.85 537.04 272.54 536.88 273.25 536.82 274.78 536.68 275.88 536.59 277.9 536.4 279.81 536.23 281.31 536.1 281.8 536.05 281.86 536.05 283.64 535.89 283.84 535.87 287.94 535.5 288.28 535.47 289.61 535.35 291.82 535.15 291.88 535.15 293.66 534.99 296.11 534.77 297.43 534.65 301.27 534.3 301.32 534.3 303.06 534.14 306.8 533.8 311.15 533.41 311.2 533.41 312.59 533.28 312.71 533.27 316.97 532.89 317.94 532.8 321.32 532.5 321.38 532.49 322.77 532.37 325.04 532.16 326.32 532.05 327.33 531.96 329.88 531.73 330 531.72 332.51 535.01" style="fill: #fff; stroke: #c0a05d; stroke-miterlimit: 10;"/>
    <g>
      <rect x="313.17" y="525.25" width="4.57" height="2.59" transform="translate(-33.95 21.89) rotate(-3.77)" style="fill: #fff; stroke: #c0a05d; stroke-linejoin: round;"/>
      <polygon points="328.42 540.23 328.41 541.92 328.31 541.79 323.7 535.66 321.32 532.5 318.93 529.31 318.55 528.8 317.86 527.89 317.86 527.8 317.71 525.64 317.69 525.3 317.92 525.62 319.15 527.32 320.47 529.17 322.77 532.37 325.06 535.55 328.42 540.23" style="fill: #fff; stroke: #c0a05d; stroke-linejoin: round;"/>
      <polygon points="328.36 541.79 328.31 541.79 323.86 541.87 320.04 536.9 319.37 536.01 316.97 532.89 314.56 529.75 314.52 529.69 313.27 528.06 315.01 527.94 317.82 527.76 317.86 527.8 318.57 528.76 318.98 529.3 321.38 532.49 323.76 535.66 328.26 541.65 328.36 541.79" style="fill: #fff; stroke: #c0a05d; stroke-linejoin: round;"/>
    </g>
    <g>
      <rect x="302.85" y="526.15" width="4.57" height="2.53" transform="translate(-34.03 21.21) rotate(-3.77)" style="fill: #fff; stroke: #c0a05d; stroke-linejoin: round;"/>
      <polygon points="318.08 540.75 318.06 542.4 317.96 542.27 316.18 539.96 313.51 536.49 311.87 534.35 311.15 533.41 308.67 530.19 307.54 528.71 307.53 528.63 307.41 526.78 307.37 526.19 307.77 526.74 310.21 530.06 312.59 533.28 312.64 533.36 314.86 536.38 317.09 539.41 318.08 540.75" style="fill: #fff; stroke: #c0a05d; stroke-linejoin: round;"/>
      <polygon points="318.02 542.27 317.96 542.27 313.51 542.36 313.08 541.8 309.98 537.85 309.19 536.84 306.8 533.8 304.27 530.57 302.95 528.89 307.5 528.59 307.53 528.63 308.73 530.19 311.2 533.41 311.9 534.32 313.57 536.49 316.23 539.94 317.92 542.14 318.02 542.27" style="fill: #fff; stroke: #c0a05d; stroke-linejoin: round;"/>
    </g>
    <g>
      <rect x="293.03" y="527.14" width="4.48" height="2.45" transform="translate(-34.11 20.56) rotate(-3.77)" style="fill: #fff; stroke: #c0a05d; stroke-linejoin: round;"/>
      <polyline points="297.63 529.62 297.47 527.17 307.96 540.24 307.94 542.88" style="fill: #fff; stroke: #c0a05d; stroke-linejoin: round;"/>
      <polygon points="307.9 542.76 304.4 542.51 293.12 529.79 297.59 529.5 307.8 542.63 307.9 542.76" style="fill: #fff; stroke: #c0a05d; stroke-linejoin: round;"/>
    </g>
    <g>
      <rect x="283.21" y="528.42" width="4.58" height="2.23" transform="translate(-34.21 19.92) rotate(-3.77)" style="fill: #fff; stroke: #c0a05d; stroke-linejoin: round;"/>
      <polyline points="287.9 530.65 287.75 528.43 298.38 540.23 298.34 542.63" style="fill: #fff; stroke: #c0a05d; stroke-linejoin: round;"/>
      <polygon points="298.3 542.51 294.72 542.31 283.29 530.85 287.86 530.55 298.2 542.39 298.3 542.51" style="fill: #fff; stroke: #c0a05d; stroke-linejoin: round;"/>
    </g>
    <g>
      <rect x="273.28" y="529.7" width="4.58" height="2.13" transform="translate(-34.31 19.27) rotate(-3.77)" style="fill: #fff; stroke: #c0a05d; stroke-linejoin: round;"/>
      <polyline points="277.97 531.84 277.83 529.71 288.42 540.98 288.37 543.28" style="fill: #fff; stroke: #c0a05d; stroke-linejoin: round;"/>
      <polygon points="288.33 543.17 284.76 542.99 273.36 532.04 277.93 531.74 288.23 543.06 288.33 543.17" style="fill: #fff; stroke: #c0a05d; stroke-linejoin: round;"/>
    </g>
    <g>
      <polygon points="337.12 539.97 336.98 541.66 336.89 541.52 328.44 528.49 327.42 526.93 327.42 526.85 327.43 524.58 327.43 524.34 327.57 524.56 329.92 528.36 337.12 539.97" style="fill: #fff; stroke: #c0a05d; stroke-linejoin: round;"/>
      <polygon points="336.95 541.52 336.89 541.52 332.45 541.29 328.47 535.3 326.32 532.05 324.2 528.85 324.19 528.85 322.83 526.79 327.39 526.8 327.42 526.85 327.42 526.85 328.48 528.48 336.86 541.38 336.95 541.52" style="fill: #fff; stroke: #c0a05d; stroke-linejoin: round;"/>
      <polygon points="327.4 524.15 327.4 524.58 327.39 526.74 322.83 526.73 322.83 525.08 322.83 524.13 327.4 524.15" style="fill: #fff; stroke: #c0a05d; stroke-linejoin: round;"/>
    </g>
    <text transform="translate(262.02 583.82)" style="fill: #c0a05d; font-family: MetroDF, MetroDF; font-size: 8.93px;"><tspan x="0" y="0" style="letter-spacing: .03em;">s</tspan><tspan x="8.38" y="0">eguridad</tspan></text>
  </g>
  <g id="historia">
    <path d="M281.92,111.93v46.21h-11.28v-49.35h8.13c1.74,0,3.15,1.41,3.15,3.14Z" style="fill: #e25790; stroke-width: 0px;"/>
    <g>
      <path d="M299.7,78.5h-57.74v91.36h91.36v-57.74c0-18.57-15.05-33.62-33.62-33.62ZM265.67,158.14h-11.28v-49.35h8.14c1.74,0,3.14,1.41,3.14,3.14v46.21ZM283.53,158.14h-11.28v-49.35h8.13c1.74,0,3.15,1.41,3.15,3.14v46.21ZM302.33,158.14h-11.28v-49.35h8.13c1.74,0,3.15,1.41,3.15,3.14v46.21ZM320.9,157.43h-11.28v-43.13c0-7.07-5.73-12.8-12.8-12.8h-42.19v-11.28h43.64c12.5,0,22.64,10.14,22.64,22.64v44.58Z" style="fill: #e25790; stroke-width: 0px;"/>
      <path d="M302.33,111.93v46.21h-11.28v-49.35h8.13c1.74,0,3.15,1.41,3.15,3.14Z" style="fill: #e25790; stroke-width: 0px;"/>
      <path d="M320.9,112.86v44.58h-11.28v-43.13c0-7.07-5.73-12.8-12.8-12.8h-42.19v-11.28h43.64c12.5,0,22.64,10.14,22.64,22.64Z" style="fill: #e25790; stroke-width: 0px;"/>
      <g>
        <path d="M265.67,111.93v46.21h-11.28v-49.35h8.14c1.74,0,3.14,1.41,3.14,3.14Z" style="fill: #fff; stroke-width: 0px;"/>
        <path d="M283.53,111.93v46.21h-11.28v-49.35h8.13c1.74,0,3.15,1.41,3.15,3.14Z" style="fill: #fff; stroke-width: 0px;"/>
        <path d="M302.33,111.93v46.21h-11.28v-49.35h8.13c1.74,0,3.15,1.41,3.15,3.14Z" style="fill: #fff; stroke-width: 0px;"/>
        <path d="M320.9,112.86v44.58h-11.28v-43.13c0-7.07-5.73-12.8-12.8-12.8h-42.19v-11.28h43.64c12.5,0,22.64,10.14,22.64,22.64Z" style="fill: #fff; stroke-width: 0px;"/>
      </g>
    </g>
    <text transform="translate(251 181.97)" style="fill: #e25790; font-family: MetroDF, MetroDF; font-size: 11px;"><tspan x="0" y="0">hi</tspan><tspan x="12.98" y="0" style="letter-spacing: -.05em;">s</tspan><tspan x="22.45" y="0" style="letter-spacing: -.02em;">t</tspan><tspan x="31.24" y="0">oria</tspan></text>
  </g>
  <g id="antimonumento">
    <g>
      <path d="M135.72,185.11l-81.77,82.39v-92h58.14c9.19,0,17.52,3.66,23.62,9.61Z" style="fill: #070707; stroke-width: 0px;"/>
      <path d="M145.96,209.36v58.14H53.96l81.77-82.39c6.31,6.14,10.23,14.73,10.23,24.24Z" style="fill: #070707; stroke-width: 0px;"/>
      <g id="icono">
        <path d="M108.21,255.02h-19.8c-.6,0-1.08-.47-1.02-1.01l1.79-16.39c.92.3,1.89.46,2.9.46h14.16c.54,0,1.07-.05,1.59-.14l1.41,16.09c.05.53-.42.99-1.02.99Z" style="fill: #efefe8; stroke: #070707; stroke-miterlimit: 10; stroke-width: 1.5px;"/>
        <path d="M94.46,189.67h12.79v11.8c0,2.47-2,4.47-4.47,4.47h-3.84c-2.47,0-4.47-2-4.47-4.47v-11.8h0Z" style="fill: #efefe8; stroke: #070707; stroke-miterlimit: 10; stroke-width: 1.5px;"/>
        <path d="M115.54,224.24v2.67c0,2.38-.47,4.73-1.39,6.91-1.64,3.88-3.27,6.3-7.01,6.94-.53.09-1.07.14-1.62.14h-14.41c-1.03,0-2.06-.06-2.95-.47-1.86-.85-3.46-2.32-4.83-4.73-1.49-2.61-2.24-5.61-2.24-8.65v-2.81c0-5.85-2.28-10.92,10.02-10.59h14.41c12.21-.71,10.02,4.74,10.02,10.59Z" style="fill: #efefe8; stroke: #070707; stroke-miterlimit: 10; stroke-width: 1.5px;"/>
        <path d="M99.68,194.35h2.62c.86,0,1.59.58,1.69,1.34l2.27,16.86c.29,2.17,1.79,4.05,3.99,5.02l15.73,6.9c.43.19.68.59.62,1.01l-.13,1.06c-.06.51-.55.9-1.12.9h-50.5c-.49,0-.92-.28-1.07-.69l-.41-1.11c-.18-.49.08-1.02.6-1.24l17.09-6.92c2.24-.91,3.81-2.77,4.16-4.93l2.77-16.9c.12-.75.84-1.3,1.69-1.3Z" style="fill: #821515; stroke: #070707; stroke-miterlimit: 10; stroke-width: 1.5px;"/>
        <path d="M84.05,228.95l-1.52.42c-1.23.34-2.5-.4-2.85-1.65l-2.39-8.64c-.35-1.25.37-2.54,1.59-2.88l1.52-.42c1.23-.34,2.5.4,2.85,1.65l2.39,8.64c.35,1.25-.37,2.54-1.59,2.88Z" style="fill: #efefe8; stroke: #070707; stroke-miterlimit: 10; stroke-width: 1.5px;"/>
        <path d="M90.27,226.67l-1.91.53c-1.25.35-2.55-.44-2.91-1.75l-2.72-9.87c-.36-1.31.36-2.66,1.6-3l1.91-.53c1.25-.35,2.55.44,2.91,1.75l2.72,9.87c.36,1.31-.36,2.66-1.6,3Z" style="fill: #efefe8; stroke: #070707; stroke-miterlimit: 10; stroke-width: 1.5px;"/>
        <path d="M106.73,224.49l1.55.34c1.65.36,3.26-.67,3.59-2.3l2.08-10.18c.33-1.63-.74-3.24-2.39-3.6l-1.55-.34c-1.65-.36-3.26.67-3.59,2.3l-2.08,10.18c-.33,1.63.74,3.24,2.39,3.6Z" style="fill: #efefe8; stroke: #070707; stroke-miterlimit: 10; stroke-width: 1.5px;"/>
        <path d="M117.38,230.38l-.38,1.83c-.31,1.47-1.61,2.43-2.92,2.13l-9.01-2.05c-1.31-.3-2.12-1.73-1.81-3.21l.38-1.83c.31-1.47,1.61-2.43,2.92-2.13l9.01,2.05c1.31.3,2.12,1.73,1.81,3.21Z" style="fill: #efefe8; stroke: #070707; stroke-miterlimit: 10; stroke-width: 1.5px;"/>
        <path d="M97.04,224.8l-2.07.58c-1.35.38-2.77-.48-3.16-1.93l-2.95-10.91c-.39-1.45.39-2.93,1.74-3.32l2.07-.58c1.35-.38,2.77.48,3.16,1.93l2.95,10.91c.39,1.45-.39,2.93-1.74,3.32Z" style="fill: #efefe8; stroke: #070707; stroke-miterlimit: 10; stroke-width: 1.5px;"/>
      </g>
    </g>
    <text transform="translate(29.73 281.07)" style="fill: #070707; font-family: MetroDF, MetroDF; font-size: 11px; stroke: #efefe8; stroke-miterlimit: 10; stroke-width: .25px;"><tspan x="0" y="0">A</tspan><tspan x="10.43" y="0" style="letter-spacing: -.07em;">N</tspan><tspan x="19.5" y="0">TIMONU</tspan><tspan x="77.7" y="0" style="letter-spacing: .03em;">M</tspan><tspan x="93.93" y="0">E</tspan><tspan x="103.92" y="0" style="letter-spacing: -.07em;">N</tspan><tspan x="112.99" y="0" style="letter-spacing: -.02em;">T</tspan><tspan x="121.78" y="0">O</tspan></text>
  </g>
</svg>